<?xml version="1.0" encoding="iso-8859-1"?>
<!-- Generator: Adobe Illustrator 19.0.0, SVG Export Plug-In . SVG Version: 6.00 Build 0)  -->
<svg version="1.1" id="Layer_1" xmlns="http://www.w3.org/2000/svg" xmlns:xlink="http://www.w3.org/1999/xlink" x="0px" y="0px"
	 viewBox="0 0 512 512" style="enable-background:new 0 0 512 512;" xml:space="preserve">
<path style="fill:#FFCD54;" d="M512,256.006C512,397.402,397.394,512.004,256.004,512C114.606,512.004,0,397.402,0,256.006
	C-0.007,114.61,114.606,0,256.004,0C397.394,0,512,114.614,512,256.006z"/>
<path style="fill:#F4BA41;" d="M511.872,261.06c-0.141-0.132-0.256-0.289-0.412-0.412c-0.34-0.429-0.708-0.796-1.137-1.137
	c-0.34-0.429-163.362-163.451-163.791-163.791c-1.299-1.638-3.218-2.754-5.471-2.754h-70.884c-3.915,0-7.089,3.17-7.089,7.088v49.62
	c0,2.254,1.117,4.173,2.754,5.47c0.34,0.43,0.708,0.798,1.138,1.139c0.34,0.429,14.237,14.353,14.594,14.656H156.762
	c-35.175,0-63.796,28.618-63.796,63.796v70.884c0,2.254,1.117,4.173,2.755,5.471c0.34,0.429,0.708,0.797,1.137,1.137
	c0.34,0.429,196.349,196.437,196.778,196.778c0.058,0.073,0.134,0.125,0.194,0.194C415.65,491.158,509.419,387.317,511.872,261.06z"
	/>
<path style="fill:#F4F6F9;" d="M417.356,201.798c-1.346-1.593-3.326-2.506-5.41-2.506h-35.442v-21.266
	c0-3.918-3.173-7.088-7.088-7.088h-56.707v-14.177h28.354c3.915,0,7.088-3.17,7.088-7.088v-49.62c0-3.918-3.174-7.088-7.088-7.088
	h-70.884c-3.915,0-7.088,3.17-7.088,7.088v49.619c0,3.918,3.174,7.088,7.088,7.088h28.354v14.177H156.762
	c-35.175,0-63.796,28.617-63.796,63.796v70.884c0,3.918,3.174,7.088,7.088,7.088h141.77v99.241c0,3.918,3.174,7.088,7.088,7.088
	c3.915,0,7.088-3.17,7.088-7.088v-99.238h113.415c3.915,0,7.088-3.17,7.088-7.088v-7.088h21.265c3.465,0,6.423-2.506,6.992-5.925
	l14.177-85.061C419.28,205.488,418.703,203.39,417.356,201.798z M277.265,107.142h56.708v35.442h-56.707v-35.442H277.265z
	 M362.327,298.531H107.142v-63.796c0-27.357,22.259-49.619,49.619-49.619h141.77v35.442c0,3.918,3.174,7.088,7.088,7.088
	s7.088-3.17,7.088-7.088v-35.442h49.619v113.415H362.327z M391.764,284.354h-15.261V213.47h27.073L391.764,284.354z"/>
<g>
</g>
<g>
</g>
<g>
</g>
<g>
</g>
<g>
</g>
<g>
</g>
<g>
</g>
<g>
</g>
<g>
</g>
<g>
</g>
<g>
</g>
<g>
</g>
<g>
</g>
<g>
</g>
<g>
</g>
</svg>
